TestIreland
version=1
nRows=50
nColumns=25
inDegrees=yes
endheader
time	pelvis_tilt	pelvis_list	pelvis_rotation	pelvis_tx	pelvis_ty	pelvis_tz	hip_flexion_r	hip_adduction_r	hip_rotation_r	knee_flexion_r	knee_adduction_r	knee_rotation_r	ankle_angle_r	subtalar_angle_r	mtp_angle_r	hip_flexion_l	hip_adduction_l	hip_rotation_l	knee_flexion_l	knee_adduction_l	knee_rotation_l	ankle_angle_l	subtalar_angle_l	mtp_angle_l
2.520000	0.000000	0.000000	0.000000	0.000000	0.000000	0.000000	7.991022	-6.314214	-10.923534	59.945678	-5.736721	-20.811812	-19.971784	-7.066410	0.000000	21.468439	7.751913	12.465735	22.062211	6.211965	-15.491018	3.193974	-10.501874	0.000000
2.525000	0.000000	0.000000	0.000000	0.000000	0.000000	0.000000	9.055924	-6.245046	-10.532443	60.805538	-5.692599	-20.880406	-18.972680	-6.830726	0.000000	20.949641	7.773312	12.420097	21.767146	6.144642	-15.784043	3.449650	-10.501243	0.000000
2.530000	0.000000	0.000000	0.000000	0.000000	0.000000	0.000000	10.109819	-6.129822	-10.183406	61.615880	-5.643872	-20.866641	-17.891043	-6.551248	0.000000	20.403854	7.768875	12.433831	21.437395	6.075148	-16.128476	3.685273	-10.561141	0.000000
2.535000	0.000000	0.000000	0.000000	0.000000	0.000000	0.000000	11.145109	-5.967752	-9.815837	62.345907	-5.580575	-20.799118	-16.826742	-6.355529	0.000000	19.832059	7.719018	12.451153	21.085593	6.012771	-16.506148	3.875214	-10.581590	0.000000
2.540000	0.000000	0.000000	0.000000	0.000000	0.000000	0.000000	12.147359	-5.763464	-9.437557	62.998600	-5.498843	-20.709034	-15.723681	-6.208184	0.000000	19.230606	7.633381	12.464861	20.706787	5.947952	-16.927541	4.019630	-10.584330	0.000000
2.545000	0.000000	0.000000	0.000000	0.000000	0.000000	0.000000	13.101663	-5.522502	-9.066476	63.541471	-5.409099	-20.590368	-14.577670	-6.078838	0.000000	18.590133	7.515868	12.496327	20.286673	5.883555	-17.389016	4.184919	-10.564994	0.000000
2.550000	0.000000	0.000000	0.000000	0.000000	0.000000	0.000000	14.019349	-5.251834	-8.711323	64.000187	-5.316237	-20.457960	-13.401705	-5.873036	0.000000	17.928036	7.373501	12.556645	19.841419	5.830365	-17.872430	4.313719	-10.554960	0.000000
2.555000	0.000000	0.000000	0.000000	0.000000	0.000000	0.000000	14.912821	-4.955242	-8.354131	64.364984	-5.198580	-20.313680	-12.246756	-5.679298	0.000000	17.260146	7.207697	12.642698	19.373415	5.785774	-18.375733	4.408188	-10.561348	0.000000
2.560000	0.000000	0.000000	0.000000	0.000000	0.000000	0.000000	15.774629	-4.629618	-7.983620	64.616352	-5.068144	-20.155753	-11.118847	-5.492776	0.000000	16.580423	7.020826	12.724443	18.885631	5.740590	-18.878467	4.557333	-10.541207	0.000000
2.565000	0.000000	0.000000	0.000000	0.000000	0.000000	0.000000	16.601913	-4.289115	-7.615522	64.754728	-4.924669	-19.959331	-10.015219	-5.337527	0.000000	15.876804	6.824422	12.822571	18.350324	5.687208	-19.381156	4.734278	-10.510289	0.000000
2.570000	0.000000	0.000000	0.000000	0.000000	0.000000	0.000000	17.402130	-3.948370	-7.270053	64.796490	-4.769947	-19.713727	-8.953840	-5.332572	0.000000	15.168968	6.625834	12.944923	17.795789	5.643872	-19.890351	4.872924	-10.486919	0.000000
2.575000	0.000000	0.000000	0.000000	0.000000	0.000000	0.000000	18.180305	-3.610925	-6.954397	64.724172	-4.608976	-19.447812	-7.900484	-5.430556	0.000000	14.466198	6.434087	13.074102	17.227332	5.588053	-20.365286	5.000619	-10.489614	0.000000
2.580000	0.000000	0.000000	0.000000	0.000000	0.000000	0.000000	18.922201	-3.276690	-6.657070	64.527080	-4.457037	-19.180773	-6.920286	-5.498621	0.000000	13.751869	6.240242	13.181081	16.634113	5.525050	-20.787162	5.122919	-10.498756	0.000000
2.585000	0.000000	0.000000	0.000000	0.000000	0.000000	0.000000	19.631405	-2.943429	-6.371069	64.242476	-4.297459	-18.895110	-5.902106	-5.611357	0.000000	13.032083	6.046209	13.285802	16.027994	5.452921	-21.149200	5.200446	-10.488965	0.000000
2.590000	0.000000	0.000000	0.000000	0.000000	0.000000	0.000000	20.307432	-2.631634	-6.116283	63.857092	-4.133431	-18.624114	-4.966298	-5.709765	0.000000	12.321336	5.859389	13.400559	15.437040	5.392289	-21.453371	5.221826	-10.510163	0.000000
2.595000	0.000000	0.000000	0.000000	0.000000	0.000000	0.000000	20.977721	-2.328010	-5.886016	63.369506	-3.978449	-18.367807	-4.159333	-5.854605	0.000000	11.641431	5.676387	13.508490	14.861879	5.330361	-21.693953	5.209238	-10.541423	0.000000
2.600000	0.000000	0.000000	0.000000	0.000000	0.000000	0.000000	21.623597	-2.031139	-5.680454	62.788411	-3.825257	-18.115413	-3.459052	-6.085371	0.000000	10.981507	5.491133	13.601587	14.325162	5.276255	-21.851474	5.255315	-10.550269	0.000000
2.605000	0.000000	0.000000	0.000000	0.000000	0.000000	0.000000	22.237347	-1.739497	-5.483052	62.117969	-3.669010	-17.848129	-2.877624	-6.356591	0.000000	10.342053	5.301558	13.661426	13.839703	5.233577	-21.920980	5.334469	-10.543386	0.000000
2.610000	0.000000	0.000000	0.000000	0.000000	0.000000	0.000000	22.831677	-1.462873	-5.310945	61.373473	-3.528284	-17.577714	-2.409645	-6.588921	0.000000	9.720443	5.117599	13.685922	13.386500	5.188256	-21.901410	5.436550	-10.549779	0.000000
2.615000	0.000000	0.000000	0.000000	0.000000	0.000000	0.000000	23.428645	-1.193293	-5.159960	60.587559	-3.408816	-17.296391	-1.973439	-6.762512	0.000000	9.127978	4.934269	13.678973	12.961429	5.145590	-21.820996	5.618006	-10.587199	0.000000
2.620000	0.000000	0.000000	0.000000	0.000000	0.000000	0.000000	23.995572	-0.931599	-5.037657	59.753202	-3.307232	-17.002139	-1.440300	-6.879896	0.000000	8.550042	4.750952	13.616542	12.587548	5.104407	-21.648220	5.840993	-10.620825	0.000000
2.625000	0.000000	0.000000	0.000000	0.000000	0.000000	0.000000	24.536644	-0.686084	-4.924404	58.851216	-3.218585	-16.732724	-0.942401	-7.060656	0.000000	7.977970	4.580008	13.488832	12.233668	5.056219	-21.411662	6.039175	-10.669837	0.000000
2.630000	0.000000	0.000000	0.000000	0.000000	0.000000	0.000000	25.058461	-0.474557	-4.829724	57.896821	-3.132464	-16.503372	-0.388331	-7.204952	0.000000	7.414557	4.432983	13.338023	11.900857	4.999452	-21.109315	6.243956	-10.740536	0.000000
2.635000	0.000000	0.000000	0.000000	0.000000	0.000000	0.000000	25.548513	-0.291819	-4.764196	56.875726	-3.058371	-16.293849	0.116599	-7.336289	0.000000	6.869636	4.307645	13.140439	11.614600	4.938283	-20.733284	6.452868	-10.870030	0.000000
2.640000	0.000000	0.000000	0.000000	0.000000	0.000000	0.000000	26.005762	-0.137127	-4.724557	55.760651	-3.007166	-16.100366	0.623291	-7.483740	0.000000	6.333640	4.206251	12.914048	11.354640	4.872316	-20.339950	6.635992	-10.916329	0.000000
2.645000	0.000000	0.000000	0.000000	0.000000	0.000000	0.000000	26.445791	-0.011935	-4.723278	54.588220	-2.979394	-15.914683	1.044418	-7.621863	0.000000	5.803122	4.120265	12.621602	11.112632	4.794859	-19.861638	6.842015	-10.970664	0.000000
2.650000	0.000000	0.000000	0.000000	0.000000	0.000000	0.000000	26.862920	0.098167	-4.751662	53.355522	-2.963224	-15.739238	1.458853	-7.746272	0.000000	5.282286	4.040858	12.287501	10.887773	4.711636	-19.333994	6.991670	-11.057038	0.000000
2.655000	0.000000	0.000000	0.000000	0.000000	0.000000	0.000000	27.255727	0.196629	-4.792227	52.063136	-2.951680	-15.578312	1.812284	-7.801316	0.000000	4.778775	3.965856	11.915016	10.685392	4.623003	-18.769741	7.153694	-11.158284	0.000000
2.660000	0.000000	0.000000	0.000000	0.000000	0.000000	0.000000	27.619326	0.274937	-4.840781	50.692831	-2.930077	-15.456943	2.137513	-7.904668	0.000000	4.276271	3.902621	11.522137	10.494816	4.521795	-18.181837	7.356116	-11.232036	0.000000
2.665000	0.000000	0.000000	0.000000	0.000000	0.000000	0.000000	27.957415	0.341170	-4.894682	49.256561	-2.910038	-15.362530	2.467545	-7.974591	0.000000	3.779897	3.845511	11.113057	10.313796	4.415226	-17.597655	7.533539	-11.325667	0.000000
2.670000	0.000000	0.000000	0.000000	0.000000	0.000000	0.000000	28.255037	0.391737	-4.950724	47.747134	-2.883422	-15.283595	2.832293	-8.024336	0.000000	3.288027	3.794737	10.664929	10.153839	4.311752	-17.014468	7.718000	-11.430817	0.000000
2.675000	0.000000	0.000000	0.000000	0.000000	0.000000	0.000000	28.514192	0.427272	-4.986720	46.171477	-2.841958	-15.249331	3.244047	-8.023493	0.000000	2.796250	3.747500	10.205993	10.000077	4.217211	-16.445874	7.950847	-11.563120	0.000000
2.680000	0.000000	0.000000	0.000000	0.000000	0.000000	0.000000	28.731667	0.436211	-5.008926	44.518192	-2.775395	-15.254931	3.697685	-8.038612	0.000000	2.303139	3.711054	9.751133	9.864934	4.126700	-15.894491	8.177544	-11.665646	0.000000
2.685000	0.000000	0.000000	0.000000	0.000000	0.000000	0.000000	28.923061	0.435926	-5.005990	42.805754	-2.685373	-15.285162	4.114797	-8.091221	0.000000	1.817400	3.678026	9.289367	9.730720	4.038789	-15.353186	8.350734	-11.773897	0.000000
2.690000	0.000000	0.000000	0.000000	0.000000	0.000000	0.000000	29.073457	0.430629	-4.981762	41.019127	-2.578475	-15.346599	4.415342	-8.083479	0.000000	1.330811	3.643666	8.832436	9.600566	3.953858	-14.845781	8.532045	-11.881416	0.000000
2.695000	0.000000	0.000000	0.000000	0.000000	0.000000	0.000000	29.188387	0.411777	-4.940928	39.153510	-2.444394	-15.435227	4.598007	-8.082343	0.000000	0.846017	3.610811	8.410526	9.463005	3.873988	-14.371552	8.678546	-12.029638	0.000000
2.700000	0.000000	0.000000	0.000000	0.000000	0.000000	0.000000	29.260139	0.364684	-4.870827	37.227703	-2.270958	-15.559372	4.631643	-8.045225	0.000000	0.352393	3.583183	8.009521	9.317614	3.805318	-13.929287	8.832635	-12.168518	0.000000
2.705000	0.000000	0.000000	0.000000	0.000000	0.000000	0.000000	29.303427	0.304782	-4.764747	35.251884	-2.076209	-15.723826	4.616027	-7.931662	0.000000	-0.138080	3.559584	7.626515	9.168863	3.739353	-13.521226	8.979191	-12.308161	0.000000
2.710000	0.000000	0.000000	0.000000	0.000000	0.000000	0.000000	29.303427	0.232121	-4.628287	33.226564	-1.866031	-15.926659	4.655465	-7.761042	0.000000	-0.643459	3.543517	7.242839	9.013725	3.671055	-13.130255	9.122562	-12.404257	0.000000
2.715000	0.000000	0.000000	0.000000	0.000000	0.000000	0.000000	29.266846	0.148681	-4.469365	31.177669	-1.640430	-16.161485	4.729706	-7.501167	0.000000	-1.157739	3.526158	6.874294	8.857099	3.604033	-12.742773	9.329219	-12.465114	0.000000
2.720000	0.000000	0.000000	0.000000	0.000000	0.000000	0.000000	29.190062	0.053225	-4.282593	29.100350	-1.391233	-16.425933	4.893549	-7.338004	0.000000	-1.690930	3.506884	6.535338	8.689280	3.546808	-12.379640	9.532280	-12.564936	0.000000
2.725000	0.000000	0.000000	0.000000	0.000000	0.000000	0.000000	29.090560	-0.045884	-4.060281	27.003004	-1.125140	-16.722166	5.151803	-7.266854	0.000000	-2.225049	3.483231	6.218134	8.527106	3.491329	-12.043201	9.671472	-12.640361	0.000000
2.730000	0.000000	0.000000	0.000000	0.000000	0.000000	0.000000	28.964122	-0.153933	-3.813169	24.917008	-0.862376	-17.028343	5.365104	-7.049778	0.000000	-2.766590	3.459992	5.934953	8.365360	3.443571	-11.721488	9.817006	-12.738510	0.000000
2.735000	0.000000	0.000000	0.000000	0.000000	0.000000	0.000000	28.819281	-0.260734	-3.557874	22.849467	-0.602845	-17.327739	5.465307	-6.891560	0.000000	-3.304885	3.424799	5.665956	8.223179	3.403402	-11.411661	9.984879	-12.834638	0.000000
2.740000	0.000000	0.000000	0.000000	0.000000	0.000000	0.000000	28.650196	-0.370875	-3.283056	20.794356	-0.357110	-17.629275	5.474368	-6.814169	0.000000	-3.848038	3.383936	5.435255	8.101402	3.380313	-11.139003	10.099908	-12.926278	0.000000
2.745000	0.000000	0.000000	0.000000	0.000000	0.000000	0.000000	28.473888	-0.493220	-3.003282	18.784666	-0.127386	-17.913088	5.314983	-6.686684	0.000000	-4.376740	3.347679	5.204289	8.016132	3.362416	-10.868843	10.263419	-13.008799	0.000000
2.750000	0.000000	0.000000	0.000000	0.000000	0.000000	0.000000	28.292516	-0.622986	-2.711324	16.821271	0.082678	-18.176977	5.068226	-6.473545	0.000000	-4.896486	3.317189	5.013099	7.940937	3.343840	-10.651746	10.500384	-13.070060	0.000000
2.755000	0.000000	0.000000	0.000000	0.000000	0.000000	0.000000	28.101561	-0.762205	-2.409886	14.922938	0.279139	-18.425243	4.790315	-6.295253	0.000000	-5.420543	3.289262	4.842621	7.878145	3.323786	-10.437244	10.734656	-13.118255	0.000000
2.760000	0.000000	0.000000	0.000000	0.000000	0.000000	0.000000	27.913076	-0.906864	-2.116214	13.104144	0.455724	-18.636239	4.532804	-6.182053	0.000000	-5.938281	3.257072	4.699629	7.840129	3.320862	-10.251077	10.950730	-13.174874	0.000000
2.765000	0.000000	0.000000	0.000000	0.000000	0.000000	0.000000	27.746155	-1.057239	-1.831421	11.400168	0.604459	-18.772270	4.329134	-5.883302	0.000000	-6.434960	3.228645	4.573654	7.826905	3.322909	-10.096538	11.245107	-13.173643	0.000000
